<?xml version="1.0" encoding="utf-8"?>
<!-- Generator: Adobe Illustrator 25.4.1, SVG Export Plug-In . SVG Version: 6.00 Build 0)  -->
<svg version="1.1" id="Design" xmlns="http://www.w3.org/2000/svg" xmlns:xlink="http://www.w3.org/1999/xlink" x="0px" y="0px"
	 viewBox="0 0 1280 720" style="enable-background:new 0 0 1280 720;" xml:space="preserve">
<style type="text/css">
	.st0{fill:none;stroke:#EDEDEF;stroke-width:0.75;stroke-miterlimit:10;}
</style>
<g>
	<g>
		<path class="st0" d="M1308.2,888.4l79.2,50.9c160.3,103,199.5,230.4,87.5,284.5l-55.4,26.8c-112,54.1-332.7,14.5-493.1-88.4
			l-79.2-50.9c-160.3-103-199.5-230.4-87.5-284.5l55.4-26.8C927.1,745.8,1147.9,785.4,1308.2,888.4z"/>
	</g>
	<g>
		<path class="st0" d="M1322.7,908.4l80.1,56.7c162.1,114.7,192.5,243.2,67.8,287.1l-61.6,21.7c-124.7,43.9-357.2-13.4-519.3-128.1
			l-80.1-56.7C647.5,974.5,617.1,846,741.8,802l61.6-21.7C928.1,736.4,1160.6,793.8,1322.7,908.4z"/>
	</g>
	<g>
		<path class="st0" d="M1336.5,929.4l80.6,62.4c163,126.3,183.8,255.3,46.5,288l-67.9,16.2c-137.3,32.8-380.8-43-543.8-169.3
			l-80.6-62.4c-163-126.3-183.8-255.3-46.5-288l67.9-16.2C930,727.3,1173.5,803.1,1336.5,929.4z"/>
	</g>
	<g>
		<path class="st0" d="M1349.3,951.2l80.5,68.1c162.9,137.8,173.4,266.4,23.6,287.2l-74.1,10.3c-149.8,20.8-403.4-74-566.3-211.9
			l-80.5-68.1C569.7,899,559.1,770.4,708.9,749.6l74.1-10.3C932.9,718.5,1186.4,813.4,1349.3,951.2z"/>
	</g>
	<g>
		<path class="st0" d="M1361,973.6l79.9,73.7c161.7,149.1,161.4,276.5-0.8,284.4l-80.2,3.9c-162.1,8-424.7-106.5-586.4-255.6
			l-79.9-73.7C531.9,857.3,532.3,730,694.4,722l80.2-3.9C936.7,710.1,1199.3,824.5,1361,973.6z"/>
	</g>
	<g>
		<path class="st0" d="M1371.5,996.7l78.8,79.2c159.4,160.1,147.5,285.4-26.6,279.7l-86.1-2.8c-174.1-5.7-444.6-140.1-604-300.3
			l-78.8-79.2C495.3,813.2,507.2,688,681.4,693.6l86.1,2.8C941.6,702.1,1212,836.6,1371.5,996.7z"/>
	</g>
	<g>
		<path class="st0" d="M1380.6,1020.3l77.1,84.4c156,170.8,131.9,293-53.8,272.8l-91.8-9.9c-185.7-20.1-462.7-174.9-618.7-345.7
			l-77.1-84.4c-156-170.8-131.9-293,53.8-272.8l91.8,9.9C947.6,694.7,1224.6,849.5,1380.6,1020.3z"/>
	</g>
	<g>
		<path class="st0" d="M1388.2,1044.2l74.8,89.5c151.3,181,114.5,299.1-82.3,263.9l-97.3-17.4c-196.8-35.3-479.1-210.6-630.4-391.6
			l-74.8-89.5c-151.3-181-114.5-299.1,82.3-263.9l97.3,17.4C954.6,687.9,1236.8,863.2,1388.2,1044.2z"/>
	</g>
	<g>
		<path class="st0" d="M1394.2,1068.4l71.9,94.2c145.5,190.6,95.3,303.8-112,252.7l-102.5-25.3c-207.3-51-493.2-247-638.7-437.6
			L541,858.1c-145.5-190.6-95.3-303.8,112-252.7l102.5,25.3C962.7,681.8,1248.7,877.8,1394.2,1068.4z"/>
	</g>
	<g>
		<path class="st0" d="M1398.4,1092.7l68.4,98.7c138.3,199.6,74.4,306.7-142.7,239.2l-107.3-33.4
			c-217.1-67.5-505.1-284.1-643.4-483.7L505,814.7C366.7,615.1,430.6,508,647.6,575.6L754.9,609
			C972,676.5,1260.1,893.1,1398.4,1092.7z"/>
	</g>
	<g>
		<path class="st0" d="M1400.6,1116.9l64.2,102.7c129.8,207.9,51.8,307.9-174.3,223.3l-111.7-41.8
			c-226-84.5-514.5-321.6-644.3-529.4L470.3,769c-129.8-207.9-51.8-307.9,174.3-223.3l111.7,41.8
			C982.4,672,1270.8,909.1,1400.6,1116.9z"/>
	</g>
	<g>
		<path class="st0" d="M1400.9,1141l59.3,106.4c120,215.3,27.5,307.1-206.6,205.1l-115.7-50.4c-234.1-102-521.1-359.2-641.1-574.4
			l-59.3-106.4C317.5,506,410,414.1,644.1,516.1l115.7,50.4C993.9,668.5,1280.9,925.7,1400.9,1141z"/>
	</g>
	<g>
		<path class="st0" d="M1399,1164.6l53.8,109.6c108.8,221.7,1.5,304.3-239.6,184.5l-119.2-59.2
			c-241.1-119.8-524.7-396.7-633.5-618.4l-53.8-109.6C297.9,449.8,405.2,367.1,646.3,487l119.2,59.2
			C1006.5,666,1290.2,942.9,1399,1164.6z"/>
	</g>
	<g>
		<path class="st0" d="M1394.8,1187.7l47.6,112.3c96.2,227.1-26,299.5-273,161.5l-122.1-68.2c-247-138-525.3-433.9-621.5-661.1
			L378.2,620c-96.2-227.1,26-299.5,273-161.5l122.1,68.2C1020.3,664.6,1298.5,960.6,1394.8,1187.7z"/>
	</g>
	<g>
		<path class="st0" d="M1388.2,1210.1l40.7,114.4c82.3,231.4-54.9,292.4-306.6,136.1l-124.4-77.2
			c-251.7-156.3-522.4-470.6-604.8-702L352.4,567c-82.3-231.5,55-292.4,306.6-136.2L783.4,508
			C1035.1,664.4,1305.9,978.7,1388.2,1210.1z"/>
	</g>
	<g>
		<path class="st0" d="M1379.1,1231.5l33.2,115.9c67.1,234.5-85.2,283-340.2,108.3l-126-86.3C691,1194.7,430,863,362.9,628.5
			l-33.2-115.9c-67-234.5,85.3-283,340.3-108.3l126,86.3C1051,665.4,1312.1,997.1,1379.1,1231.5z"/>
	</g>
	<g>
		<path class="st0" d="M1367.5,1251.9l25,116.8c50.5,236.2-116.8,271.2-373.7,78.1l-127-95.4c-256.9-193.1-506-541.1-556.5-777.3
			l-25-116.8C259.9,221.1,427.2,186.1,684,379.2l127,95.4C1067.9,667.7,1317,1015.7,1367.5,1251.9z"/>
	</g>
	<g>
		<path class="st0" d="M1353.2,1270.9l16.1,116.9c32.6,236.5-149.5,257-406.8,45.7l-127.1-104.4
			c-257.2-211.3-492.1-574.4-524.7-810.9l-16.1-116.9c-32.6-236.5,149.5-257,406.8-45.7L828.5,460
			C1085.7,671.3,1320.6,1034.4,1353.2,1270.9z"/>
	</g>
	<g>
		<path class="st0" d="M1336.2,1288.5l6.6,116.3c13.4,235.4-183.2,240.3-439.2,11l-126.5-113.3
			c-255.9-229.3-474.3-605.9-487.7-841.3l-6.6-116.3C269.4,109.5,466,104.6,722,333.9l126.5,113.3
			C1104.5,676.5,1322.8,1053.1,1336.2,1288.5z"/>
	</g>
	<g>
		<path class="st0" d="M1316.4,1304.3l-3.5,115c-7,232.6-217.8,221.1-470.7-25.8l-125-122C464.3,1024.7,264.9,636,272,403.4l3.5-115
			c7-232.6,217.8-221.1,470.7,25.8l125,122C1124.1,683,1323.4,1071.7,1316.4,1304.3z"/>
	</g>
	<g>
		<path class="st0" d="M1293.8,1318.2l-14.1,112.8c-28.6,228.2-252.9,199.3-501.1-64.6L656,1236C407.8,972.1,229.9,573.2,258.5,345
			l14.1-112.8C301.2,4.1,525.5,33,773.7,296.9l122.7,130.4C1144.4,691.1,1322.4,1090,1293.8,1318.2z"/>
	</g>
	<g>
		<path class="st0" d="M1268.4,1330l-25.3,109.8c-51.3,222-288.6,174.9-530-105.3L593.7,1196C352.2,915.8,198,508.6,249.3,286.5
			l25.3-109.8c51.3-222,288.6-174.9,530,105.3L924,420.6C1165.5,700.8,1319.7,1108,1268.4,1330z"/>
	</g>
	<g>
		<path class="st0" d="M1240.1,1339.5l-37.1,105.8c-75,214.1-324.5,148-557.3-147.8l-115.1-146.2
			c-232.8-295.7-360.8-709-285.8-923.2l37.1-105.8c75-214.1,324.5-148,557.3,147.8l115.1,146.2
			C1187.1,712.1,1315.1,1125.4,1240.1,1339.5z"/>
	</g>
	<g>
		<path class="st0" d="M1209,1346.5l-49.2,101c-99.6,204.3-360.5,118.5-582.7-191.8l-109.8-153.4C245.1,792,145.7,374.8,245.3,170.5
			l49.2-101C394.1-134.8,655-48.9,877.2,261.3L987,414.7C1209.2,725,1308.6,1142.2,1209,1346.5z"/>
	</g>
	<g>
		<path class="st0" d="M1175.2,1350.8l-61.8,95.2c-125,192.7-396.3,86.5-605.8-237.2l-103.6-160c-209.5-323.7-278-742.3-153-935
			l61.8-95.2c125-192.7,396.3-86.5,605.8,237.2l103.6,160C1231.7,739.5,1300.2,1158.1,1175.2,1350.8z"/>
	</g>
	<g>
		<path class="st0" d="M1138.5,1352.1l-74.7,88.5c-151.2,179.1-431.6,52-626.4-283.8l-96.3-166C146.4,655,111.2,237.6,262.4,58.5
			L337.1-30c151.2-179.1,431.6-52,626.4,283.8l96.3,166C1254.4,755.7,1289.7,1173.1,1138.5,1352.1z"/>
	</g>
	<g>
		<path class="st0" d="M1099.2,1350.4l-88,80.8c-177.9,163.5-466.3,15.2-644.2-331.4l-87.9-171.3C101.4,582.1,101.5,168.6,279.5,5
			l88-80.8C545.4-239.3,833.8-91,1011.7,255.6l87.9,171.3C1277.3,773.4,1277.2,1186.9,1099.2,1350.4z"/>
	</g>
	<g>
		<path class="st0" d="M1057.4,1345.5L956,1417.7c-205.1,146-500.1-24-658.9-379.6l-78.5-175.8C59.8,506.6,97.4,99.9,302.6-46.1
			L404-118.3c205.1-146,500.1,24,658.9,379.6l78.5,175.8C1300.1,792.8,1262.5,1199.5,1057.4,1345.5z"/>
	</g>
	<g>
		<path class="st0" d="M1013,1337.1l-115,62.5c-232.6,126.5-532.7-65.3-670.3-428.3l-68-179.5C22.2,428.8,99.3,32,332-94.5L447-157
			c232.6-126.5,532.7,65.3,670.3,428.3l68,179.5C1322.7,813.8,1245.7,1210.7,1013,1337.1z"/>
	</g>
	<g>
		<path class="st0" d="M966.4,1325.2l-128.7,51.9c-260.3,105-563.8-108.6-678-477.2l-56.4-182.2c-114.2-368.5,4.2-752.4,264.5-857.4
			l128.7-51.9c260.3-105,563.8,108.6,678,477.2l56.4,182.2C1345.1,836.3,1226.6,1220.2,966.4,1325.2z"/>
	</g>
	<g>
		<path class="st0" d="M917.5,1309.6l-142.3,40.3C487.3,1431.5,182,1196.1,93.3,824.1L49.5,640.2c-88.7-372,72.8-739.7,360.6-821.3
			l142.3-40.3c287.9-81.6,593.2,153.8,681.9,525.8l43.8,183.9C1366.9,860.3,1205.4,1228,917.5,1309.6z"/>
	</g>
	<g>
		<path class="st0" d="M866.7,1290.2L710.9,1318c-315.3,56.2-620.4-200.8-681.6-574L-0.9,559.4C-62.1,186.2,144-162,459.2-218.2
			L615.1-246c315.3-56.2,620.4,200.8,681.6,574l30.2,184.5C1388,885.8,1182,1234,866.7,1290.2z"/>
	</g>
	<g>
		<path class="st0" d="M814.2,1266.8L645,1281.2C302.7,1310.2-0.4,1032-31.9,659.8l-15.6-184c-31.6-372.2,220.4-697.5,562.6-726.5
			L684.3-265c342.3-29,645.4,249.2,676.9,621.4l15.6,184C1408.4,912.6,1156.5,1237.8,814.2,1266.8z"/>
	</g>
	<g>
		<path class="st0" d="M760.1,1239.5H577.8c-368.7,0-667.6-298.9-667.6-667.6V389.6C-89.8,20.9,209.1-278,577.8-278h182.3
			c368.7,0,667.6,298.9,667.6,667.6v182.3C1427.7,940.6,1128.8,1239.5,760.1,1239.5z"/>
	</g>
</g>
</svg>
